<svg xmlns="http://www.w3.org/2000/svg" width="246.784" height="74.394" viewBox="0 0 246.784 74.394"><defs><style>.a,.b{fill:#06226e;}.b{stroke:#d9000d;stroke-miterlimit:10;stroke-width:1.511px;}</style></defs><g transform="translate(-88.832 -356.842)"><path class="a" d="M293.5,376.144v55.279c0,7.029,4.97,12.756,12.141,12.756h4.331v-6.863h-3.763a5.934,5.934,0,0,1-5.893-6.177V376.144Z" transform="translate(-138.843 -13.094)"/><path class="a" d="M388.172,436.685V468.02c0,23,40.423,23,40.423,0V436.685h-6.911v30.483c0,15.589-26.791,15.589-26.791,0V436.685Z" transform="translate(-203.069 -54.165)"/><circle class="a" cx="4.615" cy="4.615" r="4.615" transform="translate(88.832 421.854)"/><path class="b" d="M620.375,356.842" transform="translate(-360.592)"/><circle class="a" cx="4.615" cy="4.615" r="4.615" transform="translate(326.386 421.878)"/><path class="a" d="M146.236,437.316l4.123-.01c3.893,0,5.533-4.006,5.533-6.167v-41.8c0-5.4,5.246-13.191,13.729-13.191h10.129v6.691l-9.2.019c-4.325,0-7.939,3.706-7.939,7.365v5.4h17.135v6.059h-17.04l0,29.06c0,7.115-4.324,13.446-11.356,13.446h-5.116Z" transform="translate(-38.942 -13.094)"/><path class="a" d="M684.528,437.289c-3.422,0-5.62-2.367-5.62-6.177V376.069h-6.822v20.282c-19.213-6.81-30.49-1.841-34.6,13.76-5.843,22.3,10.906,43.107,37.893,30.2a10.936,10.936,0,0,0,8.541,3.839l4.648,0v-6.863Zm-12.442-3.435c-5.725,5.926-28.01,9.389-28.01-15.4,0-16.039,7.683-23.569,28.01-15.4Z" transform="translate(-371.409 -13.043)"/><g transform="translate(238.213 367.854)"><path class="a" d="M556.5,436.685l-.1,35.808c0,7.029,4.97,12.756,12.141,12.756h4.331v-6.863H569.11a5.933,5.933,0,0,1-5.893-6.177V436.685Z" transform="translate(-555.406 -422.019)"/><circle class="a" cx="4.615" cy="4.615" r="4.615" transform="translate(0)"/></g></g></svg>